<svg width="32" height="32" viewBox="0 0 32 32" fill="none" xmlns="http://www.w3.org/2000/svg">
  <defs>
    <linearGradient id="logoGradient" x1="0%" y1="0%" x2="100%" y2="100%">
      <stop offset="0%" style="stop-color:#3b82f6;stop-opacity:1" />
      <stop offset="50%" style="stop-color:#a855f7;stop-opacity:1" />
      <stop offset="100%" style="stop-color:#ec4899;stop-opacity:1" />
    </linearGradient>
  </defs>
  <rect width="32" height="32" rx="6" fill="url(#logoGradient)"/>
  <path d="M23.7 25.6 21.3 14.7 26 10C27.3 8.7 28 6.7 27.3 5.3c-1.3-.7-4 0-6 2L17.3 11.3 6.4 8.9c-.7-.1-1.2.1-1.5.7l-.4.7c-.3.7-.1 1.3.4 1.7L12 16l-2.7 4H5.3l-1.3 1.3 4 2.7 2.7 4 1.3-1.3v-4l4-2.7 4.7 7.1c.4.5 1.1.7 1.7.4l.7-.3c.5-.4.8-.9.6-1.6z" fill="white" stroke="white" stroke-width="0.5"/>
</svg>
